<?xml version="1.0" encoding="utf-8"?>
<!-- Generator: Adobe Illustrator 25.2.3, SVG Export Plug-In . SVG Version: 6.00 Build 0)  -->
<svg version="1.1" id="Layer_1" xmlns="http://www.w3.org/2000/svg" xmlns:xlink="http://www.w3.org/1999/xlink" x="0px" y="0px"
	 viewBox="0 0 199.5 257.9" style="enable-background:new 0 0 199.5 257.9;" xml:space="preserve">
<style type="text/css">
	.st0{fill:#C6202D;}
	.st1{fill:none;stroke:#252964;stroke-width:7;stroke-miterlimit:10;}
</style>
<g id="Layer_1_1_">
</g>
<g id="Layer_2_1_">
	<g>
		<g>
			<path class="st0" d="M192.6,96.7c-12.7-49.7-57-76.2-62.7-79.4C87.5-7.2,14.6,8.1,3.7,9.4l16.2,243.3
				c16.1,2.2,60.4,6.1,102.9-16.6C171.9,209.8,207.2,153.9,192.6,96.7z M141.9,194.2c-38,28.3-88.7,22.7-95.8,21.8L35.6,36
				c8.1-0.9,48.1-4.9,86.7,16.6c48.7,27.1,52.3,70.9,52.6,76C177.1,167.1,147.2,190.2,141.9,194.2z"/>
		</g>
		<g>
			<path class="st1" d="M192.6,96.7c-12.7-49.7-57-76.2-62.7-79.4C87.5-7.2,14.6,8.1,3.7,9.4l16.2,243.3
				c16.1,2.2,60.4,6.1,102.9-16.6C171.9,209.8,207.2,153.9,192.6,96.7z M141.9,194.2c-38,28.3-88.7,22.7-95.8,21.8L35.6,36
				c8.1-0.9,48.1-4.9,86.7,16.6c48.7,27.1,52.3,70.9,52.6,76C177.1,167.1,147.2,190.2,141.9,194.2z"/>
		</g>
	</g>
</g>
</svg>
